<svg version="1.1" viewBox="0 0 96 96" xmlns="http://www.w3.org/2000/svg" xmlns:xlink="http://www.w3.org/1999/xlink" id="Icons_GoldBars" overflow="hidden"><style>
.MsftOfcThm_Background1_Fill {
 fill:#FFFFFF; 
}
</style>
<path d=" M 69 72 L 70.2 64 L 81.9 64 L 83.1 72 L 69 72 Z M 54 52 L 55.2 44 L 66.9 44 L 68.1 52 L 54 52 Z M 44 38 L 50 38 L 47 58 L 44 38 Z M 41 72 L 42.2 64 L 53.9 64 L 55.1 72 L 41 72 Z M 26 52 L 27.2 44 L 38.9 44 L 40.1 52 L 26 52 Z M 41.2 24 L 52.9 24 L 54.1 32 L 40 32 L 41.2 24 Z M 13 72 L 14.2 64 L 25.9 64 L 27.1 72 L 13 72 Z M 87 58 L 75 58 L 72 38 L 61 38 L 58 18 L 36 18 L 33 38 L 22 38 L 19 58 L 9 58 L 6 78 L 34 78 L 31 58 L 37 58 L 34 78 L 62 78 L 59 58 L 65 58 L 62 78 L 90 78 L 87 58 Z" stroke="none" stroke-width="1" stroke-dasharray="" stroke-dashoffset="1" fill="#FFFFFF" fill-opacity="1"/></svg>