<?xml version="1.0" standalone="no"?>
<!DOCTYPE svg PUBLIC "-//W3C//DTD SVG 20010904//EN"
 "http://www.w3.org/TR/2001/REC-SVG-20010904/DTD/svg10.dtd">
<svg version="1.0" xmlns="http://www.w3.org/2000/svg"
 width="314.000000pt" height="185.000000pt" viewBox="0 0 314.000000 185.000000"
 preserveAspectRatio="xMidYMid meet">
<metadata>
Created by potrace 1.16, written by Peter Selinger 2001-2019
</metadata>
<g transform="translate(0.000000,185.000000) scale(0.100000,-0.100000)"
fill="#000000" stroke="none">
<path d="M1615 1473 c-443 -12 -905 -52 -1070 -93 -125 -31 -257 -100 -322
-167 -71 -73 -96 -129 -97 -213 -2 -210 196 -315 744 -395 213 -31 264 -47
312 -95 21 -21 38 -47 38 -58 0 -46 -117 -112 -225 -126 -27 -4 -60 -10 -72
-13 -28 -7 -30 8 -3 32 29 26 47 90 30 110 -19 23 -30 19 -85 -34 -27 -28 -77
-65 -110 -83 -51 -29 -60 -38 -63 -65 -4 -37 20 -88 47 -103 43 -23 221 -81
231 -75 18 11 10 39 -21 71 l-32 33 24 5 c13 3 61 12 105 20 119 21 213 77
250 147 55 108 -56 263 -221 308 -22 6 -103 19 -180 30 -152 21 -351 62 -430
88 -65 21 -159 68 -214 107 l-43 31 4 57 c6 76 41 127 126 182 151 98 293 127
790 162 341 24 396 26 786 20 230 -4 505 -13 610 -21 105 -8 219 -15 254 -15
l62 0 0 39 c0 45 4 42 -109 66 -148 31 -768 57 -1116 48z"/>
</g>
</svg>
