<?xml version="1.0" standalone="no"?>
<!DOCTYPE svg PUBLIC "-//W3C//DTD SVG 20010904//EN"
 "http://www.w3.org/TR/2001/REC-SVG-20010904/DTD/svg10.dtd">
<svg version="1.0" xmlns="http://www.w3.org/2000/svg"
 width="323.000000pt" height="178.000000pt" viewBox="0 0 323.000000 178.000000"
 preserveAspectRatio="xMidYMid meet">
<metadata>
Created by potrace 1.16, written by Peter Selinger 2001-2019
</metadata>
<g transform="translate(0.000000,178.000000) scale(0.100000,-0.100000)"
fill="#000000" stroke="none">
<path d="M1920 1539 c-30 -5 -88 -25 -128 -46 -163 -81 -268 -264 -296 -515
-18 -156 -54 -300 -91 -363 -76 -130 -244 -200 -420 -176 -148 21 -329 93
-457 183 l-61 43 85 10 c114 14 173 54 135 92 -13 14 -31 14 -146 4 -73 -7
-147 -9 -166 -5 -46 8 -85 -16 -85 -53 0 -35 38 -137 100 -268 57 -120 74
-145 100 -145 14 0 19 12 24 54 6 45 3 64 -18 112 -13 33 -23 60 -21 62 1 2
20 -9 41 -23 172 -118 443 -192 604 -166 151 25 271 97 345 209 60 91 89 186
119 387 30 202 52 281 105 362 67 103 150 147 281 147 142 0 214 -37 420 -213
119 -103 178 -131 281 -138 98 -7 155 8 210 55 47 40 89 120 89 169 0 43 -28
111 -51 123 -35 19 -39 12 -39 -65 0 -148 -44 -192 -182 -183 -94 6 -123 21
-243 123 -227 194 -366 252 -535 224z"/>
</g>
</svg>
