<svg version="1.1" viewBox="0 0 96 96" xmlns="http://www.w3.org/2000/svg" xmlns:xlink="http://www.w3.org/1999/xlink" id="Icons_Shamrock" overflow="hidden"><style>
.MsftOfcThm_Background1_Fill {
 fill:#FFFFFF; 
}
</style>
<path d=" M 76.85 38.15 C 81.63 33.22 78.29 20.15 65.16 24.09 C 65.0693 24.1142 64.9761 24.0603 64.9519 23.9695 C 64.945 23.9436 64.9444 23.9163 64.95 23.89 C 68.53 10.65 55.35 7.69 50.56 12.62 C 46.75 16.55 46.47 24.14 47.05 30.44 C 47.0707 30.6377 46.9271 30.8148 46.7294 30.8355 C 46.5609 30.8531 46.403 30.7509 46.35 30.59 C 44.35 24.59 41.12 17.69 36.06 15.59 C 29.71 12.96 18.77 20.9 27.3 31.59 C 27.3608 31.6541 27.3581 31.7554 27.294 31.8162 C 27.2658 31.843 27.2288 31.8585 27.19 31.86 C 13.57 33.47 15.69 46.82 22 49.45 C 27.33 51.66 35 48.7 40.79 45.64 C 40.8769 45.6043 40.9762 45.6459 41.0118 45.7327 C 41.0347 45.7884 41.0264 45.852 40.99 45.9 C 31.267 56.7962 25.6693 70.7549 25.17 85.35 C 25.17 85.4439 25.2461 85.52 25.34 85.52 L 29 85.62 C 29.0918 85.615 29.165 85.5418 29.17 85.45 C 29.6911 72.5697 34.4071 60.2125 42.6 50.26 C 42.66 50.1878 42.7672 50.178 42.8394 50.238 C 42.9018 50.2899 42.9188 50.3787 42.88 50.45 C 40.18 56 38 62.67 40 67.49 C 42.6 73.84 56 76 57.5 62.33 C 57.5144 62.2372 57.6012 62.1736 57.694 62.188 C 57.7216 62.1923 57.7477 62.2033 57.77 62.22 C 68.51 70.75 76.45 59.82 73.77 53.47 C 71.46 47.89 63.34 44.47 56.96 42.61 C 56.7971 42.5796 56.6896 42.4229 56.72 42.26 C 56.7504 42.0971 56.9071 41.9896 57.07 42.02 C 63.76 42.65 72.62 42.5 76.85 38.15 Z" stroke="none" stroke-width="1" stroke-dasharray="" stroke-dashoffset="1" fill="#FFFFFF" fill-opacity="1"/></svg>